<mxfile host="Electron" modified="2023-08-14T11:55:06.296Z" agent="Mozilla/5.0 (Macintosh; Intel Mac OS X 10_15_7) AppleWebKit/537.36 (KHTML, like Gecko) draw.io/21.6.8 Chrome/114.0.5735.289 Electron/25.5.0 Safari/537.36" etag="fiQdQlZreoBf7x4wlOM2" version="21.6.8" type="device" pages="2">
  <diagram name="main" id="tctDKYyHvvUcEYSdKcSc">
    <mxGraphModel dx="720" dy="1363" grid="1" gridSize="10" guides="1" tooltips="1" connect="1" arrows="1" fold="1" page="1" pageScale="1" pageWidth="1100" pageHeight="850" math="0" shadow="0">
      <root>
        <mxCell id="0" />
        <mxCell id="1" parent="0" />
        <mxCell id="vPd_otGA6cYsYFcT9pb2-13" value="query to R" style="rhombus;whiteSpace=wrap;html=1;rounded=1;fillColor=#0050ef;fontColor=#ffffff;strokeColor=#001DBC;fontStyle=1;glass=0;sketch=0;fontSize=12;points=[[0,0.5,0,0,0],[0.5,0,0,0,0],[0.5,1,0,0,0],[1,0.5,0,0,0]];shadow=1;" parent="1" vertex="1">
          <mxGeometry x="540" y="-800" width="80" height="80" as="geometry" />
        </mxCell>
        <mxCell id="wpx3KFTkog88uj8q4WT4-11" style="edgeStyle=orthogonalEdgeStyle;shape=connector;rounded=1;orthogonalLoop=1;jettySize=auto;html=1;entryX=0;entryY=0.5;entryDx=0;entryDy=0;entryPerimeter=0;labelBackgroundColor=default;strokeColor=default;fontFamily=Helvetica;fontSize=11;fontColor=default;endArrow=classic;" edge="1" parent="1" source="hgM3Z5iVc-GX3JF8MEex-1" target="wpx3KFTkog88uj8q4WT4-2">
          <mxGeometry relative="1" as="geometry" />
        </mxCell>
        <mxCell id="hgM3Z5iVc-GX3JF8MEex-1" value="frame tick" style="rhombus;whiteSpace=wrap;html=1;rounded=1;fontStyle=1;glass=0;sketch=0;fontSize=12;points=[[0,0.5,0,0,0],[0.5,0,0,0,0],[0.5,1,0,0,0],[1,0.5,0,0,0]];shadow=1;" parent="1" vertex="1">
          <mxGeometry x="40" y="-683.75" width="80" height="80" as="geometry" />
        </mxCell>
        <mxCell id="zbC2pAGGy8EZjJUA5SxW-1" style="edgeStyle=orthogonalEdgeStyle;shape=connector;rounded=1;orthogonalLoop=1;jettySize=auto;html=1;exitX=1;exitY=0.5;exitDx=0;exitDy=0;exitPerimeter=0;entryX=0;entryY=0.5;entryDx=0;entryDy=0;entryPerimeter=0;labelBackgroundColor=default;strokeColor=default;fontFamily=Helvetica;fontSize=11;fontColor=default;endArrow=classic;" edge="1" parent="1" source="hgM3Z5iVc-GX3JF8MEex-2" target="vPd_otGA6cYsYFcT9pb2-13">
          <mxGeometry relative="1" as="geometry" />
        </mxCell>
        <mxCell id="hgM3Z5iVc-GX3JF8MEex-2" value="Plot!" style="rhombus;whiteSpace=wrap;html=1;rounded=1;fontStyle=1;glass=0;sketch=0;fontSize=12;points=[[0,0.5,0,0,0],[0.5,0,0,0,0],[0.5,1,0,0,0],[1,0.5,0,0,0]];shadow=1;" parent="1" vertex="1">
          <mxGeometry x="40" y="-800" width="80" height="80" as="geometry" />
        </mxCell>
        <mxCell id="wpx3KFTkog88uj8q4WT4-12" style="edgeStyle=orthogonalEdgeStyle;shape=connector;rounded=1;orthogonalLoop=1;jettySize=auto;html=1;exitX=0;exitY=0.5;exitDx=0;exitDy=0;exitPerimeter=0;entryX=1;entryY=0.5;entryDx=0;entryDy=0;entryPerimeter=0;labelBackgroundColor=default;strokeColor=default;fontFamily=Helvetica;fontSize=11;fontColor=default;endArrow=classic;" edge="1" parent="1" source="hgM3Z5iVc-GX3JF8MEex-3" target="wpx3KFTkog88uj8q4WT4-10">
          <mxGeometry relative="1" as="geometry" />
        </mxCell>
        <mxCell id="hgM3Z5iVc-GX3JF8MEex-3" value="image from R" style="rhombus;whiteSpace=wrap;html=1;rounded=1;fontStyle=1;glass=0;sketch=0;fontSize=12;points=[[0,0.5,0,0,0],[0.5,0,0,0,0],[0.5,1,0,0,0],[1,0.5,0,0,0]];shadow=1;" parent="1" vertex="1">
          <mxGeometry x="545" y="-683.75" width="80" height="80" as="geometry" />
        </mxCell>
        <mxCell id="6zUdT8GChwdI0wCmFx8a-1" value="panic" style="rounded=1;whiteSpace=wrap;html=1;sketch=0;container=1;recursiveResize=0;verticalAlign=top;arcSize=6;fontStyle=1;autosize=0;points=[];absoluteArcSize=1;shadow=1;strokeColor=#b85450;fillColor=#f8cecc;fontFamily=Helvetica;fontSize=11;" parent="1" vertex="1">
          <mxGeometry x="540" y="-590" width="90" height="90" as="geometry">
            <mxRectangle x="-98" y="-1230" width="99" height="26" as="alternateBounds" />
          </mxGeometry>
        </mxCell>
        <mxCell id="6zUdT8GChwdI0wCmFx8a-2" value="str" style="rounded=1;whiteSpace=wrap;html=1;sketch=0;points=[[0,0.5,0,0,0],[1,0.5,0,0,0]];arcSize=50;fontFamily=Helvetica;fontSize=11;fontColor=default;" parent="6zUdT8GChwdI0wCmFx8a-1" vertex="1">
          <mxGeometry x="-16.75" y="36" width="66" height="25" as="geometry" />
        </mxCell>
        <mxCell id="wpx3KFTkog88uj8q4WT4-1" value="viewer" style="rounded=1;whiteSpace=wrap;html=1;sketch=0;container=1;recursiveResize=0;verticalAlign=top;arcSize=6;fontStyle=1;autosize=0;points=[];absoluteArcSize=1;shadow=1;strokeColor=#001DBC;fillColor=#0050ef;fontColor=#ffffff;" vertex="1" parent="1">
          <mxGeometry x="240" y="-680" width="130" height="110" as="geometry">
            <mxRectangle x="-98" y="-1230" width="99" height="26" as="alternateBounds" />
          </mxGeometry>
        </mxCell>
        <mxCell id="wpx3KFTkog88uj8q4WT4-2" value="force rendering" style="rounded=1;whiteSpace=wrap;html=1;sketch=0;points=[[0,0.5,0,0,0],[1,0.5,0,0,0]];arcSize=50;" vertex="1" parent="wpx3KFTkog88uj8q4WT4-1">
          <mxGeometry x="-16.75" y="20" width="66" height="32.5" as="geometry" />
        </mxCell>
        <mxCell id="wpx3KFTkog88uj8q4WT4-10" value="image update" style="rounded=1;whiteSpace=wrap;html=1;sketch=0;points=[[0,0.5,0,0,0],[1,0.5,0,0,0]];arcSize=50;" vertex="1" parent="wpx3KFTkog88uj8q4WT4-1">
          <mxGeometry x="84.75" y="20" width="66" height="32.5" as="geometry" />
        </mxCell>
        <mxCell id="wpx3KFTkog88uj8q4WT4-8" value="error" style="rounded=1;whiteSpace=wrap;html=1;sketch=0;points=[[0,0.5,0,0,0],[1,0.5,0,0,0]];fillColor=#1ba1e2;fontColor=#ffffff;strokeColor=#006EAF;arcSize=50;" vertex="1" parent="wpx3KFTkog88uj8q4WT4-1">
          <mxGeometry x="90" y="70" width="66" height="25" as="geometry" />
        </mxCell>
        <mxCell id="wpx3KFTkog88uj8q4WT4-14" style="edgeStyle=orthogonalEdgeStyle;shape=connector;rounded=1;orthogonalLoop=1;jettySize=auto;html=1;exitX=1;exitY=0.5;exitDx=0;exitDy=0;exitPerimeter=0;entryX=0;entryY=0.5;entryDx=0;entryDy=0;entryPerimeter=0;labelBackgroundColor=default;strokeColor=default;fontFamily=Helvetica;fontSize=11;fontColor=default;endArrow=classic;" edge="1" parent="1" source="wpx3KFTkog88uj8q4WT4-8" target="6zUdT8GChwdI0wCmFx8a-2">
          <mxGeometry relative="1" as="geometry" />
        </mxCell>
      </root>
    </mxGraphModel>
  </diagram>
  <diagram id="H_eXErfAnEGrVeh6kIMW" name="viewer">
    <mxGraphModel dx="720" dy="1363" grid="1" gridSize="10" guides="1" tooltips="1" connect="1" arrows="1" fold="1" page="1" pageScale="1" pageWidth="1100" pageHeight="850" math="0" shadow="0">
      <root>
        <mxCell id="0" />
        <mxCell id="1" parent="0" />
        <mxCell id="OxmGTN-W-9_OAuxAENsA-1" value="Image Cache" style="rounded=1;whiteSpace=wrap;html=1;sketch=0;container=1;recursiveResize=0;verticalAlign=top;arcSize=6;fontStyle=1;autosize=0;points=[];absoluteArcSize=1;shadow=1;strokeColor=#001DBC;fillColor=#0050ef;fontColor=#ffffff;" vertex="1" parent="1">
          <mxGeometry x="160" y="-590" width="140" height="110" as="geometry">
            <mxRectangle x="-98" y="-1230" width="99" height="26" as="alternateBounds" />
          </mxGeometry>
        </mxCell>
        <mxCell id="OxmGTN-W-9_OAuxAENsA-2" value="force rendering" style="rounded=1;whiteSpace=wrap;html=1;sketch=0;points=[[0,0.5,0,0,0],[1,0.5,0,0,0]];arcSize=50;" vertex="1" parent="OxmGTN-W-9_OAuxAENsA-1">
          <mxGeometry x="-16.75" y="30" width="66" height="32.5" as="geometry" />
        </mxCell>
        <mxCell id="OxmGTN-W-9_OAuxAENsA-3" value="render" style="rounded=1;whiteSpace=wrap;html=1;sketch=0;points=[[0,0.5,0,0,0],[1,0.5,0,0,0]];fillColor=#1ba1e2;fontColor=#ffffff;strokeColor=#006EAF;arcSize=50;" vertex="1" parent="OxmGTN-W-9_OAuxAENsA-1">
          <mxGeometry x="84.75" y="70" width="66" height="25" as="geometry" />
        </mxCell>
        <mxCell id="OxmGTN-W-9_OAuxAENsA-4" value="image update" style="rounded=1;whiteSpace=wrap;html=1;sketch=0;points=[[0,0.5,0,0,0],[1,0.5,0,0,0]];arcSize=50;" vertex="1" parent="OxmGTN-W-9_OAuxAENsA-1">
          <mxGeometry x="84.75" y="30" width="66" height="32.5" as="geometry" />
        </mxCell>
        <mxCell id="OxmGTN-W-9_OAuxAENsA-5" value="render" style="rounded=1;whiteSpace=wrap;html=1;sketch=0;container=1;recursiveResize=0;verticalAlign=top;arcSize=6;fontStyle=1;autosize=0;points=[];absoluteArcSize=1;shadow=1;strokeColor=#001DBC;fillColor=#0050ef;fontColor=#ffffff;" vertex="1" parent="1">
          <mxGeometry x="380" y="-480" width="130" height="110" as="geometry">
            <mxRectangle x="-98" y="-1230" width="99" height="26" as="alternateBounds" />
          </mxGeometry>
        </mxCell>
        <mxCell id="OxmGTN-W-9_OAuxAENsA-6" value="image to render" style="rounded=1;whiteSpace=wrap;html=1;sketch=0;points=[[0,0.5,0,0,0],[1,0.5,0,0,0]];arcSize=50;" vertex="1" parent="OxmGTN-W-9_OAuxAENsA-5">
          <mxGeometry x="-16.75" y="27.5" width="66" height="32.5" as="geometry" />
        </mxCell>
        <mxCell id="OxmGTN-W-9_OAuxAENsA-7" value="error" style="rounded=1;whiteSpace=wrap;html=1;sketch=0;points=[[0,0.5,0,0,0],[1,0.5,0,0,0]];fillColor=#1ba1e2;fontColor=#ffffff;strokeColor=#006EAF;arcSize=50;" vertex="1" parent="OxmGTN-W-9_OAuxAENsA-5">
          <mxGeometry x="84.75" y="70" width="66" height="25" as="geometry" />
        </mxCell>
        <mxCell id="OxmGTN-W-9_OAuxAENsA-8" style="edgeStyle=orthogonalEdgeStyle;shape=connector;rounded=1;orthogonalLoop=1;jettySize=auto;html=1;exitX=1;exitY=0.5;exitDx=0;exitDy=0;exitPerimeter=0;entryX=0;entryY=0.5;entryDx=0;entryDy=0;entryPerimeter=0;labelBackgroundColor=default;strokeColor=default;fontFamily=Helvetica;fontSize=11;fontColor=default;endArrow=classic;" edge="1" parent="1" source="OxmGTN-W-9_OAuxAENsA-3" target="OxmGTN-W-9_OAuxAENsA-6">
          <mxGeometry relative="1" as="geometry" />
        </mxCell>
        <mxCell id="2WMw1mz_Se6MCp_cIFlG-1" style="edgeStyle=orthogonalEdgeStyle;shape=connector;rounded=1;orthogonalLoop=1;jettySize=auto;html=1;entryX=0;entryY=0.5;entryDx=0;entryDy=0;entryPerimeter=0;labelBackgroundColor=default;strokeColor=default;fontFamily=Helvetica;fontSize=11;fontColor=default;endArrow=classic;" edge="1" parent="1" source="OxmGTN-W-9_OAuxAENsA-9" target="OxmGTN-W-9_OAuxAENsA-2">
          <mxGeometry relative="1" as="geometry" />
        </mxCell>
        <mxCell id="OxmGTN-W-9_OAuxAENsA-9" value="force rendering" style="rhombus;whiteSpace=wrap;html=1;rounded=1;fontStyle=1;glass=0;sketch=0;fontSize=12;points=[[0,0.5,0,0,0],[0.5,0,0,0,0],[0.5,1,0,0,0],[1,0.5,0,0,0]];shadow=1;fontFamily=Helvetica;fontColor=default;" vertex="1" parent="1">
          <mxGeometry y="-560" width="80" height="80" as="geometry" />
        </mxCell>
        <mxCell id="OxmGTN-W-9_OAuxAENsA-10" value="error" style="rhombus;whiteSpace=wrap;html=1;rounded=1;fillColor=#0050ef;fontColor=#ffffff;strokeColor=#001DBC;fontStyle=1;glass=0;sketch=0;fontSize=12;points=[[0,0.5,0,0,0],[0.5,0,0,0,0],[0.5,1,0,0,0],[1,0.5,0,0,0]];shadow=1;fontFamily=Helvetica;" vertex="1" parent="1">
          <mxGeometry x="580" y="-437.5" width="80" height="80" as="geometry" />
        </mxCell>
        <mxCell id="OxmGTN-W-9_OAuxAENsA-11" style="edgeStyle=orthogonalEdgeStyle;shape=connector;rounded=1;orthogonalLoop=1;jettySize=auto;html=1;exitX=1;exitY=0.5;exitDx=0;exitDy=0;exitPerimeter=0;labelBackgroundColor=default;strokeColor=default;fontFamily=Helvetica;fontSize=11;fontColor=default;endArrow=classic;" edge="1" parent="1" source="OxmGTN-W-9_OAuxAENsA-7" target="OxmGTN-W-9_OAuxAENsA-10">
          <mxGeometry relative="1" as="geometry" />
        </mxCell>
        <mxCell id="OxmGTN-W-9_OAuxAENsA-14" style="edgeStyle=orthogonalEdgeStyle;shape=connector;rounded=1;orthogonalLoop=1;jettySize=auto;html=1;exitX=1;exitY=0.5;exitDx=0;exitDy=0;exitPerimeter=0;entryX=1;entryY=0.5;entryDx=0;entryDy=0;entryPerimeter=0;labelBackgroundColor=default;strokeColor=default;fontFamily=Helvetica;fontSize=11;fontColor=default;endArrow=classic;" edge="1" parent="1" source="OxmGTN-W-9_OAuxAENsA-13" target="OxmGTN-W-9_OAuxAENsA-4">
          <mxGeometry relative="1" as="geometry">
            <Array as="points">
              <mxPoint x="340" y="-650" />
              <mxPoint x="340" y="-544" />
            </Array>
          </mxGeometry>
        </mxCell>
        <mxCell id="OxmGTN-W-9_OAuxAENsA-13" value="image update" style="rhombus;whiteSpace=wrap;html=1;rounded=1;fontStyle=1;glass=0;sketch=0;fontSize=12;points=[[0,0.5,0,0,0],[0.5,0,0,0,0],[0.5,1,0,0,0],[1,0.5,0,0,0]];shadow=1;fontFamily=Helvetica;fontColor=default;" vertex="1" parent="1">
          <mxGeometry y="-690" width="80" height="80" as="geometry" />
        </mxCell>
      </root>
    </mxGraphModel>
  </diagram>
</mxfile>
